<?xml version="1.0" encoding="UTF-8" standalone="no"?>
<!-- Created with Inkscape (http://www.inkscape.org/) -->

<svg
   xmlns:dc="http://purl.org/dc/elements/1.1/"
   xmlns:cc="http://creativecommons.org/ns#"
   xmlns:rdf="http://www.w3.org/1999/02/22-rdf-syntax-ns#"
   xmlns:svg="http://www.w3.org/2000/svg"
   xmlns="http://www.w3.org/2000/svg"
   xmlns:sodipodi="http://sodipodi.sourceforge.net/DTD/sodipodi-0.dtd"
   xmlns:inkscape="http://www.inkscape.org/namespaces/inkscape"
   width="256"
   height="256"
   viewBox="0 0 256 256"
   id="svg2"
   version="1.1"
   inkscape:version="0.91 r13725"
   sodipodi:docname="spray.svg">
  <defs
     id="defs4" />
  <sodipodi:namedview
     id="base"
     pagecolor="#ffffff"
     bordercolor="#666666"
     borderopacity="1.0"
     inkscape:pageopacity="0.0"
     inkscape:pageshadow="2"
     inkscape:zoom="11.2"
     inkscape:cx="43.67574"
     inkscape:cy="43.426825"
     inkscape:document-units="px"
     inkscape:current-layer="layer1"
     showgrid="false"
     units="px"
     inkscape:window-width="1600"
     inkscape:window-height="838"
     inkscape:window-x="-8"
     inkscape:window-y="-8"
     inkscape:window-maximized="1" />
  <metadata
     id="metadata7">
    <rdf:RDF>
      <cc:Work
         rdf:about="">
        <dc:format>image/svg+xml</dc:format>
        <dc:type
           rdf:resource="http://purl.org/dc/dcmitype/StillImage" />
        <dc:title />
      </cc:Work>
    </rdf:RDF>
  </metadata>
  <g
     inkscape:label="Layer 1"
     inkscape:groupmode="layer"
     id="layer1"
     transform="translate(0,-796.36216)">
    <path
       style="fill:none;fill-rule:evenodd;stroke:#ffffff;stroke-width:6;stroke-linecap:butt;stroke-linejoin:miter;stroke-miterlimit:4;stroke-dasharray:none;stroke-opacity:1"
       d="M 218.09494,872.92208 105.25123,1002.033 c 0,0 2.70787,0.8158 1.0534,4.4654 0,0 -5.50339,10.6612 -8.829929,8.3496 -32.632629,-22.67605 -42.912549,-30.68227 -71.498107,-57.25741 -2.580074,-2.39862 2.532219,-7.92469 5.962762,-8.72564 2.173502,-0.50746 5.835297,3.28389 5.835297,3.28389 L 153.04125,836.50531 c 0,0 -6.42703,-3.48882 -6.35502,-6.52374 0.11992,-5.05381 7.12185,-12.86329 11.08606,-10.34918 27.18769,17.24283 48.60069,28.0765 72.69109,50.08359 2.37662,2.17111 -3.24163,6.80041 -6.43575,7.19995 -2.36549,0.29589 -5.93269,-3.99385 -5.93269,-3.99385 z"
       id="path3336"
       inkscape:connector-curvature="0"
       sodipodi:nodetypes="ccsssaccassac" />
    <path
       style="fill:none;fill-rule:evenodd;stroke:#ffffff;stroke-width:6;stroke-linecap:butt;stroke-linejoin:miter;stroke-opacity:1;stroke-miterlimit:4;stroke-dasharray:none"
       d="m 94.195207,1012.8934 c 0,0 -22.863605,7.2068 -30.444539,0.4586 -9.497097,-8.4539 -19.78168,-12.7179 -30.040937,-21.56566 -6.958211,-6.00088 -0.724846,-27.55579 -0.724846,-27.55579 z"
       id="path4138"
       inkscape:connector-curvature="0"
       sodipodi:nodetypes="csscc" />
    <path
       style="fill:none;fill-rule:evenodd;stroke:#ffffff;stroke-width:6;stroke-linecap:butt;stroke-linejoin:miter;stroke-opacity:1;stroke-miterlimit:4;stroke-dasharray:none"
       d="m 59.763293,1009.9747 -11.066434,10.6573 -13.450648,-8.1372 8.807965,-13.02618 z"
       id="path4140"
       inkscape:connector-curvature="0" />
    <ellipse
       style="fill:none;fill-rule:evenodd;stroke:#ffffff;stroke-width:2.01871675;stroke-linecap:butt;stroke-linejoin:miter;stroke-miterlimit:4;stroke-dasharray:none;stroke-opacity:1"
       id="path4142"
       cx="790.04425"
       cy="-498.43192"
       rx="2.0901821"
       ry="3.3966036"
       transform="matrix(-0.44279901,0.8966209,-0.79538958,-0.60609851,0,0)" />
    <path
       style="fill:none;fill-rule:evenodd;stroke:#ffffff;stroke-width:6;stroke-linecap:butt;stroke-linejoin:miter;stroke-opacity:1;stroke-miterlimit:4;stroke-dasharray:none"
       d="m 153.03811,836.18952 64.14469,35.86041"
       id="path6910"
       inkscape:connector-curvature="0" />
    <path
       style="fill:none;fill-rule:evenodd;stroke:#ffffff;stroke-width:6;stroke-linecap:butt;stroke-linejoin:miter;stroke-miterlimit:4;stroke-dasharray:none;stroke-opacity:1"
       d="M 102.53049,1001.2232 38.385797,953.36721"
       id="path6912"
       inkscape:connector-curvature="0"
       sodipodi:nodetypes="cc" />
  </g>
</svg>
