<?xml version="1.0" encoding="UTF-8" standalone="no"?>
<!-- Created with Inkscape (http://www.inkscape.org/) -->

<svg
   xmlns:dc="http://purl.org/dc/elements/1.1/"
   xmlns:cc="http://creativecommons.org/ns#"
   xmlns:rdf="http://www.w3.org/1999/02/22-rdf-syntax-ns#"
   xmlns:svg="http://www.w3.org/2000/svg"
   xmlns="http://www.w3.org/2000/svg"
   xmlns:sodipodi="http://sodipodi.sourceforge.net/DTD/sodipodi-0.dtd"
   xmlns:inkscape="http://www.inkscape.org/namespaces/inkscape"
   width="256"
   height="256"
   viewBox="0 0 256 256"
   id="svg2"
   version="1.1"
   inkscape:version="0.91 r13725"
   sodipodi:docname="dropper.svg">
  <defs
     id="defs4" />
  <sodipodi:namedview
     id="base"
     pagecolor="#ffffff"
     bordercolor="#666666"
     borderopacity="1.0"
     inkscape:pageopacity="0.0"
     inkscape:pageshadow="2"
     inkscape:zoom="0.56681756"
     inkscape:cx="339.09941"
     inkscape:cy="313.95526"
     inkscape:document-units="px"
     inkscape:current-layer="layer1"
     showgrid="false"
     units="px"
     inkscape:window-width="1600"
     inkscape:window-height="838"
     inkscape:window-x="-8"
     inkscape:window-y="-8"
     inkscape:window-maximized="1"
     showguides="false" />
  <metadata
     id="metadata7">
    <rdf:RDF>
      <cc:Work
         rdf:about="">
        <dc:format>image/svg+xml</dc:format>
        <dc:type
           rdf:resource="http://purl.org/dc/dcmitype/StillImage" />
        <dc:title />
      </cc:Work>
    </rdf:RDF>
  </metadata>
  <g
     inkscape:label="Layer 1"
     inkscape:groupmode="layer"
     id="layer1"
     transform="translate(0,-796.36216)">
    <path
       style="fill:none;fill-rule:evenodd;stroke:#ffffff;stroke-width:6;stroke-linecap:butt;stroke-linejoin:miter;stroke-opacity:1;stroke-miterlimit:4;stroke-dasharray:none"
       d="m 138.9336,908.79744 -86.006516,77.84692 c 0,0 -6.395356,7.71854 -8.380122,11.24701 -1.984765,3.52843 -12.349653,13.67283 -12.349653,13.67283 l 4.410591,3.9695 c 0,0 3.749001,-5.0722 14.334418,-11.247 10.585417,-6.1748 99.899872,-84.68331 99.899872,-84.68331 z"
       id="path4171"
       inkscape:connector-curvature="0" />
    <path
       style="fill:#ffffff;fill-rule:evenodd;stroke:none;stroke-width:1px;stroke-linecap:butt;stroke-linejoin:miter;stroke-opacity:1"
       d="m 129.78162,892.47826 c 0,0 16.64998,-16.09865 20.84004,-18.74501 4.19006,-2.64635 4.07979,4.79652 11.74319,4.35546 8.98642,-0.51721 31.30595,-37.93039 47.79978,-23.98259 9.46991,8.00811 1.38044,19.34738 -8.85375,28.53486 -7.52122,6.75198 -17.1136,11.37829 -17.1136,17.55581 0,4.59803 1.10897,7.19453 2.471,7.68448 4.50833,2.65783 -12.83432,16.94839 -19.45178,22.36267 z"
       id="path4173"
       inkscape:connector-curvature="0"
       sodipodi:nodetypes="csssssccc" />
    <ellipse
       style="fill:#ffffff;stroke:none;stroke-width:6;stroke-miterlimit:4;stroke-dasharray:none;stroke-opacity:1"
       id="path4175"
       cx="618.14374"
       cy="547.72449"
       rx="27.265574"
       ry="6.7656407"
       transform="matrix(0.69839693,0.71571064,-0.51658262,0.85623735,0,0)" />
  </g>
</svg>
